<svg id="Capa_1" enable-background="new 0 0 512 512" height="512" viewBox="0 0 512 512" width="512" xmlns="http://www.w3.org/2000/svg"><g><path d="m126.389 17.276c5.218 0 9.462 4.245 9.462 9.462 0 4.142 3.358 7.5 7.5 7.5s7.5-3.358 7.5-7.5c0-5.218 4.245-9.462 9.462-9.462 4.142 0 7.5-3.358 7.5-7.5s-3.358-7.5-7.5-7.5c-6.58 0-12.562 2.611-16.962 6.852-4.401-4.241-10.383-6.852-16.962-6.852-4.142 0-7.5 3.358-7.5 7.5s3.358 7.5 7.5 7.5z"/><path d="m175.806 38.725c12.029 0 21.816 9.786 21.816 21.815 0 4.142 3.358 7.5 7.5 7.5s7.5-3.358 7.5-7.5c0-12.029 9.786-21.815 21.815-21.815 4.142 0 7.5-3.358 7.5-7.5s-3.358-7.5-7.5-7.5c-11.948 0-22.585 5.722-29.315 14.568-6.73-8.847-17.368-14.568-29.316-14.568-4.142 0-7.5 3.358-7.5 7.5s3.358 7.5 7.5 7.5z"/><path d="m499.698 71.092c-7.927-7.939-18.477-12.311-29.708-12.311-21.402 0-39.116 16.093-41.681 36.817-7.352-6.309-16.904-10.126-27.33-10.126-23.164 0-42.01 18.841-42.01 42v12.453h-205.939v-12.45c0-23.159-18.846-42-42.01-42-10.426 0-19.978 3.817-27.33 10.126-2.564-20.724-20.278-36.817-41.68-36.817-11.231 0-21.781 4.372-29.699 12.302-7.939 7.927-12.311 18.477-12.311 29.708v401.43c0 4.142 3.358 7.5 7.5 7.5l497-.003c4.142 0 7.5-3.358 7.5-7.5v-401.43c0-11.231-4.372-21.781-12.302-29.699zm-484.698 29.702c0-7.22 2.809-14 7.917-19.101 5.092-5.101 11.873-7.909 19.092-7.909 14.888 0 27 12.117 27 27.01v26.68c0 4.142 3.358 7.5 7.5 7.5s7.5-3.358 7.5-7.5c0-14.888 12.117-27 27.01-27s27.01 12.112 27.01 27v80.773c-5.487-3.743-12.113-5.935-19.241-5.935-7.452 0-14.354 2.392-19.98 6.45-3.283-15.477-17.054-27.124-33.494-27.124-18.878 0-34.237 15.359-34.237 34.237 0 4.142 3.358 7.5 7.5 7.5s7.5-3.358 7.5-7.5c0-10.607 8.63-19.237 19.237-19.237s19.237 8.63 19.237 19.237v20.674c0 4.142 3.358 7.5 7.5 7.5s7.5-3.358 7.5-7.5c0-10.607 8.63-19.237 19.237-19.237s19.237 8.63 19.237 19.237c0 .026.004.051.004.077v180.766c-7.517 7.447-13.005 16.967-15.546 27.737-3.439-.631-6.934-.949-10.454-.949-29.461 0-53.848 22.07-57.539 50.543h-39.49zm482 393.927h-47.311c-3.692-28.471-28.079-50.54-57.539-50.54-3.525 0-7.024.319-10.468.951-1.53-6.402-4.144-12.472-7.711-17.976v-116.691c0-.012.004-.022.004-.034 0-10.607 8.63-19.237 19.237-19.237s19.237 8.629 19.237 19.237c0 4.142 3.358 7.5 7.5 7.5s7.5-3.358 7.5-7.5v-20.674c0-10.607 8.63-19.237 19.237-19.237s19.237 8.63 19.237 19.237c0 4.142 3.358 7.5 7.5 7.5s7.5-3.358 7.5-7.5c0-18.878-15.359-34.237-34.237-34.237-16.44 0-30.211 11.647-33.494 27.124-5.627-4.058-12.529-6.45-19.98-6.45-7.129 0-13.754 2.192-19.241 5.935v-64.877c0-4.142-3.358-7.5-7.5-7.5s-7.5 3.358-7.5 7.5v194.213c-9.791-7.007-21.522-10.813-33.72-10.813-16.949 0-32.831 7.339-43.785 19.945-8.868-5.238-18.89-7.975-29.375-7.975-10.484 0-20.506 2.737-29.374 7.974-3.355-3.863-7.197-7.253-11.48-10.124-3.441-2.306-8.1-1.387-10.406 2.054s-1.386 8.1 2.054 10.406c4.738 3.176 8.751 7.212 11.927 11.997 1.155 1.74 2.983 2.919 5.044 3.255 2.061.334 4.168-.204 5.816-1.487 7.617-5.937 16.752-9.075 26.419-9.075s18.802 3.138 26.42 9.075c1.646 1.283 3.753 1.822 5.816 1.487 2.062-.335 3.889-1.516 5.044-3.256 8.009-12.07 21.422-19.276 35.88-19.276 22.218 0 41.051 17.323 42.875 39.437.19 2.311 1.439 4.403 3.381 5.668 1.943 1.265 4.36 1.56 6.551.801 4.544-1.577 9.286-2.376 14.092-2.376 21.174 0 38.827 15.371 42.386 35.54h-364.891c3.559-20.169 21.211-35.54 42.385-35.54 4.806 0 9.547.799 14.092 2.376 2.191.759 4.609.464 6.552-.802 1.942-1.265 3.19-3.358 3.381-5.668 1.83-22.219 20.042-39.173 42.364-39.437 4.142-.049 7.459-3.446 7.411-7.588-.049-4.141-3.439-7.427-7.588-7.411-9.057.107-17.608 2.262-25.211 6.025v-251.752h205.94v32.327c0 4.142 3.358 7.5 7.5 7.5s7.5-3.358 7.5-7.5v-59.78c0-14.888 12.117-27 27.01-27 14.894 0 27.01 12.112 27.01 27 0 4.142 3.358 7.5 7.5 7.5s7.5-3.358 7.5-7.5v-26.68c0-14.894 12.112-27.01 27-27.01 7.219 0 14 2.809 19.101 7.918 5.1 5.092 7.909 11.872 7.909 19.092v393.929z"/><path d="m185.603 175.827c-4.142 0-7.5 3.358-7.5 7.5v172.938c0 4.142 3.358 7.5 7.5 7.5s7.5-3.358 7.5-7.5v-172.938c0-4.142-3.358-7.5-7.5-7.5z"/><path d="m266.727 175.827c-4.142 0-7.5 3.358-7.5 7.5v83.816c0 4.142 3.358 7.5 7.5 7.5s7.5-3.358 7.5-7.5v-83.816c0-4.142-3.358-7.5-7.5-7.5z"/><path d="m236.133 215.748c-4.142 0-7.5 3.358-7.5 7.5v170.262c0 4.142 3.358 7.5 7.5 7.5s7.5-3.358 7.5-7.5v-170.262c0-4.142-3.358-7.5-7.5-7.5z"/><path d="m322.593 223.73c-4.142 0-7.5 3.358-7.5 7.5v106.413c0 4.142 3.358 7.5 7.5 7.5s7.5-3.358 7.5-7.5v-106.413c0-4.142-3.358-7.5-7.5-7.5z"/></g></svg>